{"accessors":[{"bufferView":2,"componentType":5126,"count":3072,"max":[6.379119873046875,6.379119873046875,0.9129699468612671],"min":[-6.379119873046875,-6.379119873046875,-0.7529197931289673],"type":"VEC3","byteOffset":0},{"bufferView":2,"byteOffset":36864,"componentType":5126,"count":3072,"max":[0.9959053993225098,0.9959053993225098,0.9999009966850281],"min":[-0.9959053993225098,-0.9959053993225098,-0.9980700612068176],"type":"VEC3"},{"bufferView":1,"componentType":5125,"count":18432,"max":[3071],"min":[0],"type":"SCALAR","byteOffset":0},{"bufferView":2,"byteOffset":73728,"componentType":5126,"count":80,"max":[0.5652499794960022,0.5516299605369568,11.209919929504395],"min":[-0.5652499794960022,-0.5788699984550476,0.4412602186203003],"type":"VEC3"},{"bufferView":2,"byteOffset":74688,"componentType":5126,"count":80,"max":[1,1,0],"min":[-1,-1,0],"type":"VEC3"},{"bufferView":1,"byteOffset":73728,"componentType":5125,"count":384,"max":[79],"min":[0],"type":"SCALAR"},{"bufferView":2,"byteOffset":75648,"componentType":5126,"count":281,"max":[2.384589910507202,2.7311301231384277,14.829230308532715],"min":[-2.384589910507202,-4.7187299728393555,10.060059547424316],"type":"VEC3"},{"bufferView":2,"byteOffset":79020,"componentType":5126,"count":281,"max":[0.9998900294303894,1,0.9998900294303894],"min":[-0.9998900294303894,-0.6652281284332275,-0.9998900294303894],"type":"VEC3"},{"bufferView":1,"byteOffset":75264,"componentType":5125,"count":1632,"max":[280],"min":[0],"type":"SCALAR"},{"bufferView":2,"byteOffset":82392,"componentType":5126,"count":1536,"max":[7.194900035858154,-3.5577499866485596,19.639549255371094],"min":[-7.194900035858154,-7.026810169219971,5.249750137329102],"type":"VEC3"},{"bufferView":2,"byteOffset":100824,"componentType":5126,"count":1536,"max":[0.9999642968177795,0.9910998344421387,0.9999642968177795],"min":[-0.9999642968177795,-0.9979697465896606,-0.9999642968177795],"type":"VEC3"},{"bufferView":1,"byteOffset":81792,"componentType":5125,"count":9216,"max":[1535],"min":[0],"type":"SCALAR"},{"bufferView":2,"byteOffset":119256,"componentType":5126,"count":226,"max":[0.9792699813842773,-6.224020004272461,13.423919677734375],"min":[-0.9792699813842773,-6.573740005493164,11.46537971496582],"type":"VEC3"},{"bufferView":2,"byteOffset":121968,"componentType":5126,"count":226,"max":[0.9981371164321899,1,0.9981371164321899],"min":[-0.9981371164321899,-1,-0.9981371164321899],"type":"VEC3"},{"bufferView":1,"byteOffset":118656,"componentType":5125,"count":1344,"max":[225],"min":[0],"type":"SCALAR"},{"bufferView":2,"byteOffset":124680,"componentType":5126,"count":226,"max":[1.3472100496292114,-4.447559833526611,13.79185962677002],"min":[-1.3472100496292114,-5.432449817657471,11.097439765930176],"type":"VEC3"},{"bufferView":2,"byteOffset":127392,"componentType":5126,"count":226,"max":[0.999872624874115,1,0.999872624874115],"min":[-0.999872624874115,-1,-0.999872624874115],"type":"VEC3"},{"bufferView":1,"byteOffset":124032,"componentType":5125,"count":1344,"max":[225],"min":[0],"type":"SCALAR"},{"bufferView":2,"byteOffset":130104,"componentType":5126,"count":464,"max":[0.9194499850273132,0.7995999455451965,15.646240234375],"min":[0.5808299779891968,0.4609702229499817,14.291379928588867],"type":"VEC3"},{"bufferView":2,"byteOffset":135672,"componentType":5126,"count":464,"max":[1,1,0.9975398778915405],"min":[-1,-1,-0.8237152099609375],"type":"VEC3"},{"bufferView":1,"byteOffset":129408,"componentType":5125,"count":2688,"max":[463],"min":[0],"type":"SCALAR"},{"bufferView":2,"byteOffset":141240,"componentType":5126,"count":12096,"max":[6.828413486480713,-3.813046455383301,19.27308464050293],"min":[-6.828423976898193,-3.993166923522949,5.6162261962890625],"type":"VEC3"},{"bufferView":2,"byteOffset":286392,"componentType":5126,"count":12096,"max":[0.9999330639839172,0.9999979138374329,0.9999328255653381],"min":[-0.9999328255653381,-0.9995754361152649,-0.9999330639839172],"type":"VEC3"},{"bufferView":1,"byteOffset":140160,"componentType":5125,"count":69120,"max":[12095],"min":[0],"type":"SCALAR"},{"bufferView":2,"byteOffset":431544,"componentType":5126,"count":486,"max":[5.26140022277832,-4.58234977722168,16.811979293823242],"min":[-4.140719890594482,-5.257019996643066,7.272370338439941],"type":"VEC3"},{"bufferView":2,"byteOffset":437376,"componentType":5126,"count":486,"max":[0.9982194900512695,0.9998010993003845,0.9848816990852356],"min":[-0.9731951355934143,-0.9977707862854004,-0.9977324604988098],"type":"VEC3"},{"bufferView":1,"byteOffset":416640,"componentType":5125,"count":2880,"max":[485],"min":[0],"type":"SCALAR"},{"bufferView":2,"byteOffset":443208,"componentType":5126,"count":12096,"max":[6.556190013885498,-6.297070026397705,19.000839233398438],"min":[-6.55620002746582,-6.46999979019165,5.888460159301758],"type":"VEC3"},{"bufferView":2,"byteOffset":588360,"componentType":5126,"count":12096,"max":[0.9999328851699829,0.9999979138374329,0.9999328851699829],"min":[-0.9999328851699829,-0.9995754957199097,-0.999933123588562],"type":"VEC3"},{"bufferView":1,"byteOffset":428160,"componentType":5125,"count":69120,"max":[12095],"min":[0],"type":"SCALAR"},{"bufferView":4,"componentType":5126,"count":5,"max":[1,0,0,0,0,1,0,0,0,1,1,0,0.00046999999904073775,0,12.417960166931152,1],"min":[1,0,-0.00004999999873689376,0,-0.00004999999873689376,-0.9999600052833557,-1,0,-0.000039999998989515007,0,-0.9999600052833557,0,-0.7501199841499329,-14.337750434875488,-4.941780090332031,1],"type":"MAT4","byteOffset":0},{"bufferView":0,"componentType":5123,"count":3072,"max":[1,1,1,1],"min":[1,1,1,1],"type":"VEC4","byteOffset":0},{"bufferView":3,"componentType":5126,"count":3072,"max":[1,0,0,0],"min":[1,0,0,0],"type":"VEC4","byteOffset":0},{"bufferView":0,"byteOffset":24576,"componentType":5123,"count":80,"max":[1,1,1,1],"min":[1,1,1,1],"type":"VEC4"},{"bufferView":3,"byteOffset":49152,"componentType":5126,"count":80,"max":[1,0,0,0],"min":[1,0,0,0],"type":"VEC4"},{"bufferView":0,"byteOffset":25216,"componentType":5123,"count":281,"max":[2,2,2,2],"min":[2,2,2,2],"type":"VEC4"},{"bufferView":3,"byteOffset":50432,"componentType":5126,"count":281,"max":[1,0,0,0],"min":[1,0,0,0],"type":"VEC4"},{"bufferView":0,"byteOffset":27464,"componentType":5123,"count":1536,"max":[2,2,2,2],"min":[2,2,2,2],"type":"VEC4"},{"bufferView":3,"byteOffset":54928,"componentType":5126,"count":1536,"max":[1,0,0,0],"min":[1,0,0,0],"type":"VEC4"},{"bufferView":0,"byteOffset":39752,"componentType":5123,"count":226,"max":[2,2,2,2],"min":[2,2,2,2],"type":"VEC4"},{"bufferView":3,"byteOffset":79504,"componentType":5126,"count":226,"max":[1,0,0,0],"min":[1,0,0,0],"type":"VEC4"},{"bufferView":0,"byteOffset":41560,"componentType":5123,"count":226,"max":[3,3,3,3],"min":[3,3,3,3],"type":"VEC4"},{"bufferView":3,"byteOffset":83120,"componentType":5126,"count":226,"max":[1,0,0,0],"min":[1,0,0,0],"type":"VEC4"},{"bufferView":0,"byteOffset":43368,"componentType":5123,"count":464,"max":[4,4,4,4],"min":[4,4,4,4],"type":"VEC4"},{"bufferView":3,"byteOffset":86736,"componentType":5126,"count":464,"max":[1,0,0,0],"min":[1,0,0,0],"type":"VEC4"},{"bufferView":0,"byteOffset":47080,"componentType":5123,"count":12096,"max":[2,2,2,2],"min":[2,2,2,2],"type":"VEC4"},{"bufferView":3,"byteOffset":94160,"componentType":5126,"count":12096,"max":[1,0,0,0],"min":[1,0,0,0],"type":"VEC4"},{"bufferView":0,"byteOffset":143848,"componentType":5123,"count":486,"max":[3,3,3,3],"min":[3,3,3,3],"type":"VEC4"},{"bufferView":3,"byteOffset":287696,"componentType":5126,"count":486,"max":[1,0,0,0],"min":[1,0,0,0],"type":"VEC4"},{"bufferView":0,"byteOffset":147736,"componentType":5123,"count":12096,"max":[2,2,2,2],"min":[2,2,2,2],"type":"VEC4"},{"bufferView":3,"byteOffset":295472,"componentType":5126,"count":12096,"max":[1,0,0,0],"min":[1,0,0,0],"type":"VEC4"},{"bufferView":5,"componentType":5126,"count":1,"max":[0],"min":[0],"type":"SCALAR","byteOffset":0},{"bufferView":6,"componentType":5126,"count":1,"max":[0.7071067690849304,0,0,0.7071067690849304],"min":[0.7071067690849304,0,0,0.7071067690849304],"type":"VEC4","byteOffset":0},{"bufferView":5,"byteOffset":4,"componentType":5126,"count":251,"max":[10.416669845581055],"min":[0],"type":"SCALAR"},{"bufferView":6,"byteOffset":16,"componentType":5126,"count":251,"max":[0.7039957046508789,0.33747610449790955,0.3404736816883087,0.7102041840553284],"min":[0.6178057789802551,-0.33752205967903137,-0.34047719836235046,0.6232677698135376],"type":"VEC4"},{"bufferView":5,"byteOffset":1008,"componentType":5126,"count":251,"max":[10.416669845581055],"min":[0],"type":"SCALAR"},{"bufferView":6,"byteOffset":4032,"componentType":5126,"count":251,"max":[0.0031155431643128395,0.7040739059448242,0.710112452507019,0.7101197242736816],"min":[-0.7040809392929077,-0.7040176391601562,-0.710055410861969,-0.003177649574354291],"type":"VEC4"},{"bufferView":5,"byteOffset":2012,"componentType":5126,"count":1,"max":[0],"min":[0],"type":"SCALAR"},{"bufferView":6,"byteOffset":8048,"componentType":5126,"count":1,"max":[-0.7071067690849304,-0.0000035355340060050366,0.0000318198035529349,0.7071067690849304],"min":[-0.7071067690849304,-0.0000035355340060050366,0.0000318198035529349,0.7071067690849304],"type":"VEC4"},{"bufferView":5,"byteOffset":2016,"componentType":5126,"count":1,"max":[0],"min":[0],"type":"SCALAR"},{"bufferView":6,"byteOffset":8064,"componentType":5126,"count":1,"max":[0,0,0,1],"min":[0,0,0,1],"type":"VEC4"},{"bufferView":5,"byteOffset":2020,"componentType":5126,"count":1,"max":[7.583330154418945],"min":[7.583330154418945],"type":"SCALAR"},{"bufferView":6,"byteOffset":8080,"componentType":5126,"count":1,"max":[0.7071067690849304,0,0,0.7071067690849304],"min":[0.7071067690849304,0,0,0.7071067690849304],"type":"VEC4"},{"bufferView":5,"byteOffset":2024,"componentType":5126,"count":2,"max":[7.625],"min":[7.583330154418945],"type":"SCALAR"},{"bufferView":6,"byteOffset":8096,"componentType":5126,"count":2,"max":[0.6200298070907593,0.3345896899700165,-0.3363935649394989,0.6254843473434448],"min":[0.6194033026695251,0.3334280848503113,-0.3375653922557831,0.6248522400856018],"type":"VEC4"},{"bufferView":5,"byteOffset":2032,"componentType":5126,"count":2,"max":[7.625],"min":[7.583330154418945],"type":"SCALAR"},{"bufferView":6,"byteOffset":8128,"componentType":5126,"count":2,"max":[-0.6501849293708801,0.27015963196754456,0.2725094258785248,0.7061251401901245],"min":[-0.7001165747642517,-0.0746290534734726,-0.07523395121097565,0.6557478308677673],"type":"VEC4"},{"bufferView":5,"byteOffset":2040,"componentType":5126,"count":1,"max":[7.583330154418945],"min":[7.583330154418945],"type":"SCALAR"},{"bufferView":6,"byteOffset":8160,"componentType":5126,"count":1,"max":[-0.7071067690849304,-0.0000035355340060050366,0.0000318198035529349,0.7071067690849304],"min":[-0.7071067690849304,-0.0000035355340060050366,0.0000318198035529349,0.7071067690849304],"type":"VEC4"},{"bufferView":5,"byteOffset":2044,"componentType":5126,"count":1,"max":[7.583330154418945],"min":[7.583330154418945],"type":"SCALAR"},{"bufferView":6,"byteOffset":8176,"componentType":5126,"count":1,"max":[0,0,0,1],"min":[0,0,0,1],"type":"VEC4"},{"bufferView":5,"byteOffset":2048,"componentType":5126,"count":1,"max":[0],"min":[0],"type":"SCALAR"},{"bufferView":6,"byteOffset":8192,"componentType":5126,"count":1,"max":[0.7071067690849304,0,0,0.7071067690849304],"min":[0.7071067690849304,0,0,0.7071067690849304],"type":"VEC4"},{"bufferView":5,"byteOffset":2052,"componentType":5126,"count":2,"max":[0.041669998317956924],"min":[0],"type":"SCALAR"},{"bufferView":6,"byteOffset":8208,"componentType":5126,"count":2,"max":[0.7039957046508789,-0.0000141420096042566,0.008863411843776703,0.7102041840553284],"min":[0.7039392590522766,-0.008814087137579918,-0.0000141420096042566,0.7101475596427917],"type":"VEC4"},{"bufferView":5,"byteOffset":2060,"componentType":5126,"count":2,"max":[0.041669998317956924],"min":[0],"type":"SCALAR"},{"bufferView":6,"byteOffset":8240,"componentType":5126,"count":2,"max":[-0.6178890466690063,0.3375544250011444,0.34048062562942505,0.7101197242736816],"min":[-0.7040809392929077,-0.0000035355078580323607,0.000031819570722291246,0.6231716275215149],"type":"VEC4"},{"bufferView":5,"byteOffset":2068,"componentType":5126,"count":1,"max":[0],"min":[0],"type":"SCALAR"},{"bufferView":6,"byteOffset":8272,"componentType":5126,"count":1,"max":[-0.7071067690849304,-0.0000035355340060050366,0.0000318198035529349,0.7071067690849304],"min":[-0.7071067690849304,-0.0000035355340060050366,0.0000318198035529349,0.7071067690849304],"type":"VEC4"},{"bufferView":5,"byteOffset":2072,"componentType":5126,"count":1,"max":[0],"min":[0],"type":"SCALAR"},{"bufferView":6,"byteOffset":8288,"componentType":5126,"count":1,"max":[0,0,0,1],"min":[0,0,0,1],"type":"VEC4"}],"animations":[{"channels":[{"sampler":0,"target":{"node":5,"path":"rotation"}},{"sampler":1,"target":{"node":6,"path":"rotation"}},{"sampler":2,"target":{"node":7,"path":"rotation"}},{"sampler":3,"target":{"node":8,"path":"rotation"}},{"sampler":4,"target":{"node":3,"path":"rotation"}}],"name":"Action","samplers":[{"input":51,"interpolation":"LINEAR","output":52},{"input":53,"interpolation":"LINEAR","output":54},{"input":55,"interpolation":"LINEAR","output":56},{"input":57,"interpolation":"LINEAR","output":58},{"input":59,"interpolation":"LINEAR","output":60}]},{"channels":[{"sampler":0,"target":{"node":5,"path":"rotation"}},{"sampler":1,"target":{"node":6,"path":"rotation"}},{"sampler":2,"target":{"node":7,"path":"rotation"}},{"sampler":3,"target":{"node":8,"path":"rotation"}},{"sampler":4,"target":{"node":3,"path":"rotation"}}],"name":"Sweeping","samplers":[{"input":61,"interpolation":"LINEAR","output":62},{"input":63,"interpolation":"LINEAR","output":64},{"input":65,"interpolation":"LINEAR","output":66},{"input":67,"interpolation":"LINEAR","output":68},{"input":69,"interpolation":"LINEAR","output":70}]},{"channels":[{"sampler":0,"target":{"node":5,"path":"rotation"}},{"sampler":1,"target":{"node":6,"path":"rotation"}},{"sampler":2,"target":{"node":7,"path":"rotation"}},{"sampler":3,"target":{"node":8,"path":"rotation"}},{"sampler":4,"target":{"node":3,"path":"rotation"}}],"name":"Blowing","samplers":[{"input":71,"interpolation":"LINEAR","output":72},{"input":73,"interpolation":"LINEAR","output":74},{"input":75,"interpolation":"LINEAR","output":76},{"input":77,"interpolation":"LINEAR","output":78},{"input":79,"interpolation":"LINEAR","output":80}]}],"asset":{"extras":{"author":"Kenetics (https://sketchfab.com/Kenetics)","license":"CC-BY-4.0 (http://creativecommons.org/licenses/by/4.0/)","source":"https://sketchfab.com/models/e89af135f53e470ba5f2bb2f056c3952","title":"Fan"},"generator":"Sketchfab-3.18.7","version":"2.0"},"bufferViews":[{"buffer":0,"byteLength":244504,"byteOffset":0,"byteStride":8,"name":"shortBufferViews","target":34962},{"buffer":0,"byteLength":704640,"byteOffset":244504,"name":"floatBufferViews","target":34963},{"buffer":0,"byteLength":733512,"byteOffset":949144,"byteStride":12,"name":"floatBufferViews","target":34962},{"buffer":0,"byteLength":489008,"byteOffset":1682656,"byteStride":16,"name":"floatBufferViews","target":34962},{"buffer":0,"byteLength":320,"byteOffset":2171664,"byteStride":64,"name":"floatBufferViews"},{"buffer":0,"byteLength":2076,"byteOffset":2171984,"name":"floatBufferViews"},{"buffer":0,"byteLength":8304,"byteOffset":2174060,"byteStride":16,"name":"floatBufferViews"}],"buffers":[{"byteLength":2182364,"uri":"data:application/octet-stream;base64,"}],"extensionsRequired":["KHR_materials_pbrSpecularGlossiness"],"extensionsUsed":["KHR_materials_pbrSpecularGlossiness"],"materials":[{"doubleSided":false,"extensions":{"KHR_materials_pbrSpecularGlossiness":{"diffuseFactor":[0,0,0,1],"glossinessFactor":0.6907393293,"specularFactor":[1,1,0]}},"name":"Material.001","emissiveFactor":[0,0,0],"alphaMode":"OPAQUE"}],"meshes":[{"name":"CubeOpen2","primitives":[{"attributes":{"JOINTS_0":31,"NORMAL":1,"POSITION":0,"WEIGHTS_0":32},"indices":2,"material":0,"mode":4}]},{"name":"CubeOpen1","primitives":[{"attributes":{"JOINTS_0":33,"NORMAL":4,"POSITION":3,"WEIGHTS_0":34},"indices":5,"material":0,"mode":4}]},{"name":"Cube","primitives":[{"attributes":{"JOINTS_0":35,"NORMAL":7,"POSITION":6,"WEIGHTS_0":36},"indices":8,"material":0,"mode":4}]},{"name":"Plane.001","primitives":[{"attributes":{"JOINTS_0":37,"NORMAL":10,"POSITION":9,"WEIGHTS_0":38},"indices":11,"material":0,"mode":4}]},{"name":"Plane","primitives":[{"attributes":{"JOINTS_0":39,"NORMAL":13,"POSITION":12,"WEIGHTS_0":40},"indices":14,"material":0,"mode":4}]},{"name":"Plane.002","primitives":[{"attributes":{"JOINTS_0":41,"NORMAL":16,"POSITION":15,"WEIGHTS_0":42},"indices":17,"material":0,"mode":4}]},{"name":"CubeOpen1.001","primitives":[{"attributes":{"JOINTS_0":43,"NORMAL":19,"POSITION":18,"WEIGHTS_0":44},"indices":20,"material":0,"mode":4}]},{"name":"CubeOpen.002","primitives":[{"attributes":{"JOINTS_0":45,"NORMAL":22,"POSITION":21,"WEIGHTS_0":46},"indices":23,"material":0,"mode":4}]},{"name":"Plane.003","primitives":[{"attributes":{"JOINTS_0":47,"NORMAL":25,"POSITION":24,"WEIGHTS_0":48},"indices":26,"material":0,"mode":4}]},{"name":"CubeOpen","primitives":[{"attributes":{"JOINTS_0":49,"NORMAL":28,"POSITION":27,"WEIGHTS_0":50},"indices":29,"material":0,"mode":4}]}],"nodes":[{"children":[1],"name":"RootNode (gltf orientation matrix)","rotation":[-0.7071067811865475,0,0,0.7071067811865476],"translation":[0,0,0],"scale":[1,1,1]},{"children":[2],"name":"RootNode (model correction matrix)"},{"children":[3],"name":"Root"},{"children":[4,10,12,14,16,18,20,22,24,26,28,9,11,13,15,17,19,21,23,25,27],"name":"FanSkeleton","translation":[2.750809907913208,0.15081000328063965,0.6973400115966797],"rotation":[0,0,0,1],"scale":[1,1,1]},{"children":[5],"name":"FanSkeleton_rootJoint"},{"children":[6],"name":"Base_FanSkeleton","rotation":[0.7071068286895752,0,0,0.7071068286895752],"scale":[1,1,1],"translation":[0,0,0]},{"children":[7,8],"name":"Fan_FanSkeleton","rotation":[0.7039957642555237,-0.000014142011423246004,-0.000014142011423246004,0.7102042436599731],"scale":[1,0.9999985098838806,0.9999985694885254],"translation":[0,12.418439865112305,0]},{"name":"FanBlades_FanSkeleton","rotation":[-0.7040809392929077,-0.0000035355078580323607,0.000031819570722291246,0.7101197242736816],"scale":[1,0.9999964237213135,0.9999964833259583],"translation":[0,4.938899993896484,0.017139999195933342]},{"name":"FanRotationSwitch_FanSkeleton","rotation":[-0.7071068286895752,-0.0000035355344607523875,0.00003181980719091371,0.7071068286895752],"scale":[1,1,1],"translation":[0.7500699758529663,-0.6209400296211243,-1.919819951057434]},{"matrix":[1,0,0,0,0,1,0,0,0,0,1,0,0,-0.013620000000000002,5.825589999999999,1],"name":"CubeOpen2"},{"mesh":0,"name":"CubeOpen2_0","skin":0},{"matrix":[1,0,0,0,0,1,0,0,0,0,1,0,0,-0.013620000000000002,5.825589999999999,1],"name":"CubeOpen1"},{"mesh":1,"name":"CubeOpen1_0","skin":0},{"matrix":[1,0,0,0,0,1,0,0,0,0,1,0,0,-0.013620000000000002,5.825589999999999,1],"name":"Cube"},{"mesh":2,"name":"Cube_0","skin":0},{"matrix":[1,0,0,0,0,1,0,0,0,0,1,0,0,-5.7069600000000005,12.44465,1],"name":"Plane.001"},{"mesh":3,"name":"Plane.001_0","skin":0},{"matrix":[1,0,0,0,0,1,0,0,0,0,1,0,0,-6.401200000000001,12.44465,1],"name":"Plane"},{"mesh":4,"name":"Plane_0","skin":0},{"matrix":[1,0,0,0,0,1,0,0,0,0,1,0,0,-4.93885,12.44465,1],"name":"Plane.002"},{"mesh":5,"name":"Plane.002_0","skin":0},{"matrix":[1,0,0,0,0,1,0,0,0,0,1,0,0,-4.607309999999999,12.44465,1],"name":"CubeOpen1.001"},{"mesh":6,"name":"CubeOpen1.001_0","skin":0},{"matrix":[1.0415199999999998,0,0,0,0,1.0415199999999998,0,0,0,0,1.0415199999999998,0,0,-3.9215,12.44465,1],"name":"CubeOpen.002"},{"mesh":7,"name":"CubeOpen.002_0","skin":0},{"matrix":[1,0,0,0,0,1,0,0,0,0,1,0,0,-4.938860000000001,12.44465,1],"name":"Plane.003"},{"mesh":8,"name":"Plane.003_0","skin":0},{"matrix":[1,0,0,0,0,1,0,0,0,0,1,0,0,-6.401200000000001,12.44465,1],"name":"CubeOpen"},{"mesh":9,"name":"CubeOpen_0","skin":0}],"scene":0,"scenes":[{"name":"OSG_Scene","nodes":[0]}],"skins":[{"inverseBindMatrices":30,"joints":[4,5,6,7,8],"skeleton":4}]}
